<svg width="1200" height="220" viewBox="0 0 1200 220" xmlns="http://www.w3.org/2000/svg">
<defs>
<linearGradient id="cardTop" x1="0" y1="0" x2="0" y2="1">
<stop offset="0%" stop-color="#12193A"/>
<stop offset="100%" stop-color="#0D1224"/>
</linearGradient>
<filter id="soft"><feGaussianBlur stdDeviation="4"/></filter>
</defs>
<rect width="1200" height="220" fill="#050714"/>

<g>
<animateTransform attributeName="transform" type="translate" values="0,0; 0,-6; 0,0" dur="3.5s" repeatCount="indefinite"/>
<ellipse cx="200" cy="195" rx="150" ry="10" fill="#000" opacity="0.3" filter="url(#soft)"/>
<rect x="60" y="30" width="280" height="150" rx="18" fill="url(#cardTop)" stroke="#2A4D8C"/>
<circle cx="200" cy="80" r="26" fill="none" stroke="#4DA8FF" stroke-width="2.5"/>
<polygon points="200,64 210,90 200,84 190,90" fill="#4DA8FF"/>
<text x="200" y="130" text-anchor="middle" font-family="Consolas, Monaco, monospace" font-size="15" font-weight="700" fill="#B9D6FF">Building</text>
<text x="200" y="150" text-anchor="middle" font-family="Consolas, Monaco, monospace" font-size="12" fill="#7A8AAE">Real world products</text>
<text x="200" y="166" text-anchor="middle" font-family="Consolas, Monaco, monospace" font-size="12" fill="#7A8AAE">AI-first full-stack apps</text>
</g>

<g>
<animateTransform attributeName="transform" type="translate" values="0,-4; 0,4; 0,-4" dur="4s" repeatCount="indefinite"/>
<ellipse cx="600" cy="195" rx="150" ry="10" fill="#000" opacity="0.3" filter="url(#soft)"/>
<rect x="460" y="30" width="280" height="150" rx="18" fill="url(#cardTop)" stroke="#2A4D8C"/>
<rect x="580" y="58" width="40" height="50" rx="3" fill="none" stroke="#639922" stroke-width="2.5"/>
<line x1="580" y1="70" x2="620" y2="70" stroke="#639922" stroke-width="1.5"/>
<line x1="580" y1="82" x2="620" y2="82" stroke="#639922" stroke-width="1.5"/>
<line x1="580" y1="94" x2="612" y2="94" stroke="#639922" stroke-width="1.5"/>
<text x="600" y="130" text-anchor="middle" font-family="Consolas, Monaco, monospace" font-size="15" font-weight="700" fill="#C0DD97">Learning</text>
<text x="600" y="150" text-anchor="middle" font-family="Consolas, Monaco, monospace" font-size="12" fill="#7A8AAE">Agentic AI · LLMs</text>
<text x="600" y="166" text-anchor="middle" font-family="Consolas, Monaco, monospace" font-size="12" fill="#7A8AAE">System design at scale</text>
</g>

<g>
<animateTransform attributeName="transform" type="translate" values="0,0; 0,-8; 0,0" dur="3s" repeatCount="indefinite"/>
<ellipse cx="1000" cy="195" rx="150" ry="10" fill="#000" opacity="0.3" filter="url(#soft)"/>
<rect x="860" y="30" width="280" height="150" rx="18" fill="url(#cardTop)" stroke="#2A4D8C"/>
<circle cx="1000" cy="82" r="24" fill="none" stroke="#EF9F27" stroke-width="2"/>
<circle cx="1000" cy="82" r="15" fill="none" stroke="#EF9F27" stroke-width="2"/>
<circle cx="1000" cy="82" r="5" fill="#EF9F27"/>
<text x="1000" y="130" text-anchor="middle" font-family="Consolas, Monaco, monospace" font-size="15" font-weight="700" fill="#FAC775">Looking for</text>
<text x="1000" y="150" text-anchor="middle" font-family="Consolas, Monaco, monospace" font-size="12" fill="#7A8AAE">Internships · Full-time</text>
<text x="1000" y="166" text-anchor="middle" font-family="Consolas, Monaco, monospace" font-size="12" fill="#7A8AAE">Open source · Freelance</text>
</g>
</svg>
